<svg width="20" height="20" viewBox="0 0 20 20" fill="none" xmlns="http://www.w3.org/2000/svg">
<path d="M18.889 8.88931H1.11104C0.497376 8.88931 0 9.3867 0 10.0004C0 10.6141 0.497376 11.1115 1.11104 11.1115H18.889C19.5026 11.1115 20 10.6141 20 10.0004C20 9.3867 19.5026 8.88931 18.889 8.88931ZM10.7857 1.89676C11.2197 1.46278 11.2197 0.759255 10.7857 0.325483C10.3517 -0.108494 9.64824 -0.108494 9.21429 0.325483L0.325806 9.21427C-0.108156 9.64824 -0.108156 10.3518 0.325806 10.7857L9.21429 19.6745C9.64826 20.1085 10.3518 20.1085 10.7857 19.6745C11.2197 19.2407 11.2197 18.5372 10.7857 18.1032L2.68245 9.99971L10.7857 1.89676Z" fill="#022C3B"/>
</svg>
