<svg width="28" height="25" viewBox="0 0 28 25" fill="none" xmlns="http://www.w3.org/2000/svg">
<path d="M4.66667 24.267C2.09733 24.267 0 22.1694 0 19.6004V8.40038C0 5.83138 2.09733 3.73371 4.66667 3.73371H7.29167L8.45833 0.61296V0.612634C8.59278 0.245451 8.94206 0.00065 9.33333 0H18.6667C19.0579 0.000651 19.4072 0.245117 19.5417 0.612634L20.7083 3.73338H23.3333C25.9027 3.73338 28 5.83105 28 8.40005V19.6001C28 22.1691 25.9027 24.2667 23.3333 24.2667H4.66667V24.267ZM4.66667 22.4005H23.3333C24.9008 22.4005 26.1335 21.1678 26.1335 19.6004V8.40038C26.1335 6.83296 24.9008 5.60021 23.3333 5.60021H20.0667C19.6791 5.60184 19.3311 5.36388 19.1917 5.00223L18.0104 1.86681H9.98958L8.80825 5.00223C8.66893 5.36388 8.32094 5.60183 7.93325 5.60021H4.66667C3.09925 5.60021 1.8665 6.83296 1.8665 8.40038V19.6004C1.8665 21.1678 3.09925 22.4005 4.66667 22.4005ZM14 20.0672C10.6605 20.0672 7.93325 17.34 7.93325 14.0005C7.93325 10.661 10.6605 7.93371 14 7.93371C17.3395 7.93371 20.0667 10.661 20.0667 14.0005C20.0667 17.34 17.3395 20.0672 14 20.0672ZM14 18.2007C16.3308 18.2007 18.1998 16.3312 18.1998 14.0009C18.1998 11.6701 16.3303 9.80104 14 9.80104C11.6693 9.80104 9.80017 11.6705 9.80017 14.0009C9.80017 16.3316 11.6697 18.2007 14 18.2007Z" fill="#222222"/>
</svg>
